<?xml version="1.0" encoding="UTF-8"?>
<svg version="1.1" xmlns="http://www.w3.org/2000/svg" width="512" height="512">
<path d="M0 0 C7.87129748 7.35514683 11.96682484 17.06512205 12.96611285 27.72097206 C13.07117049 30.94675592 13.08760303 34.16049449 13.06845093 37.38793945 C13.0731309 38.61464261 13.07781087 39.84134577 13.08263266 41.10522175 C13.09246801 44.47978383 13.0890105 47.85383887 13.07967401 51.22836924 C13.07284973 54.87942582 13.08338138 58.53044004 13.09161377 62.18148804 C13.10491746 69.32186236 13.10208842 76.46214179 13.09337585 83.60251975 C13.08658642 89.40833038 13.08568801 95.21411451 13.0889473 101.01992798 C13.089407 101.84787001 13.08986669 102.67581204 13.09034032 103.52884322 C13.09129955 105.21106331 13.09227219 106.89328339 13.0932581 108.57550347 C13.10180214 124.33054301 13.09199336 140.08553009 13.075857 155.84056103 C13.06245471 169.34392893 13.06478308 182.84721944 13.07861328 196.35058594 C13.09468654 212.05124147 13.10097826 227.75185108 13.09177649 243.45251369 C13.09082089 245.12836646 13.08987778 246.80421924 13.0889473 248.48007202 C13.08848447 249.3045124 13.08802164 250.12895279 13.08754479 250.97837621 C13.08496014 256.7737322 13.08931456 262.56905894 13.09638596 268.3644104 C13.10482058 275.43199982 13.10247971 282.49948934 13.08654372 289.56706738 C13.07868731 293.16948646 13.07552417 296.7717393 13.08549118 300.37415695 C13.0961526 304.28688444 13.08337826 308.19934276 13.06845093 312.11206055 C13.07514309 313.23980046 13.08183526 314.36754038 13.08873022 315.52945423 C12.98038512 330.21142335 8.34619021 342.71419938 -1.7890625 353.421875 C-12.25659596 363.07922785 -24.3942805 367.17516266 -38.51171875 366.9609375 C-49.87679326 366.10499047 -58.94268719 361.99654187 -68.3125 355.75 C-70.96571239 356.35569751 -70.96571239 356.35569751 -73.75 357.5625 C-85.61177896 362.29107311 -98.3564488 362.28200805 -110.4375 358.0234375 C-114.80284877 356.08987269 -118.53662316 353.6496185 -122.3125 350.75 C-123.17875 350.1725 -124.045 349.595 -124.9375 349 C-133.39504633 340.98758769 -139.92701581 328.84659793 -140.42602539 317.07104492 C-140.42078857 316.13365479 -140.41555176 315.19626465 -140.41015625 314.23046875 C-140.40693359 313.20888672 -140.40371094 312.18730469 -140.40039062 311.13476562 C-140.39201172 310.07966797 -140.38363281 309.02457031 -140.375 307.9375 C-140.37048828 306.86306641 -140.36597656 305.78863281 -140.36132812 304.68164062 C-140.34957729 302.03770317 -140.33314787 299.39388048 -140.3125 296.75 C-141.20453125 296.47285156 -142.0965625 296.19570313 -143.015625 295.91015625 C-157.8891823 290.67621488 -167.97577141 279.21065103 -175.3125 265.75 C-181.90361706 250.98371289 -183.33051279 231.81126387 -177.56640625 216.52734375 C-177.15261719 215.61082031 -176.73882812 214.69429687 -176.3125 213.75 C-175.88839844 212.80253906 -175.46429688 211.85507813 -175.02734375 210.87890625 C-171.92213953 204.64254903 -167.98216046 199.86135957 -163.0703125 194.94140625 C-160.89535871 192.69818051 -160.89535871 192.69818051 -161.3125 188.75 C-162.70190872 186.66197317 -162.70190872 186.66197317 -164.5625 184.625 C-173.6537163 173.49102053 -174.37388408 160.55095786 -173.3125 146.75 C-172.51985872 142.70561949 -171.23982865 139.38161333 -169.3125 135.75 C-168.82652344 134.81800781 -168.34054688 133.88601562 -167.83984375 132.92578125 C-163.01344782 124.56231029 -156.52171174 118.04368605 -147.3125 114.75 C-147.56386719 113.18765625 -147.56386719 113.18765625 -147.8203125 111.59375 C-150.5846896 92.87087719 -148.07157872 76.35828914 -137.25 60.3125 C-126.88772221 46.60755195 -112.27310234 38.22915375 -95.375 35.375 C-87.10525132 34.38411186 -78.37748258 34.44852936 -70.3125 36.75 C-70.35890625 35.79480469 -70.4053125 34.83960938 -70.453125 33.85546875 C-70.8153002 20.88183585 -68.35980379 11.51739532 -59.3125 1.75 C-42.67989366 -15.39176776 -18.13115767 -14.4707164 0 0 Z M-51.3125 12.75 C-56.06395481 20.54979076 -58.6531697 27.9330354 -56.8515625 37.09375 C-55.69261637 41.1841481 -54.63686208 43.85047844 -51.1875 46.4375 C-48.3125 48.75 -48.3125 48.75 -47.1875 51.8125 C-47.3125 54.75 -47.3125 54.75 -48.875 57.1875 C-51.3125 58.75 -51.3125 58.75 -54.03515625 58.5625 C-57.79575453 57.63019435 -60.77421711 56.14077291 -64.1875 54.3125 C-75.91275629 48.27771048 -87.06117177 46.6910345 -100.0625 50.375 C-112.76204005 54.75255156 -122.45371105 62.1747944 -129.3125 73.75 C-136.01867698 87.61058172 -137.36130997 100.21983112 -132.3828125 115.0078125 C-131.40395887 117.68474907 -131.40395887 117.68474907 -130.1875 119.8203125 C-129.11752352 122.17999278 -129.11169952 123.92278365 -129.1875 126.5 C-129.20554688 127.29921875 -129.22359375 128.0984375 -129.2421875 128.921875 C-129.26539063 129.52515625 -129.28859375 130.1284375 -129.3125 130.75 C-137.50506018 131.38019694 -137.50506018 131.38019694 -140.875 128.75 C-141.5865625 127.76 -141.5865625 127.76 -142.3125 126.75 C-151.88820268 133.16620687 -157.45063193 140.4642152 -160.3125 151.75 C-161.73696153 161.38512178 -158.26131296 169.9308854 -153.0078125 177.83984375 C-150.87202092 180.24630017 -149.32213436 181.54699644 -146.3125 182.75 C-143.61679215 182.16423643 -141.45834852 181.51745091 -138.9375 180.5 C-131.49772795 177.64203878 -124.32483292 176.0932514 -116.3125 176.75 C-113.75 178.375 -113.75 178.375 -112.3125 180.75 C-112.375 183.875 -112.375 183.875 -113.3125 186.75 C-116.8676842 189.1201228 -119.02300682 189.16553779 -123.25 189.5625 C-137.34489787 191.19276556 -148.57243589 197.55896988 -157.6796875 208.4453125 C-166.70149775 221.17944659 -169.22844191 235.10004449 -166.73046875 250.2890625 C-163.00166376 264.2848511 -154.09450153 274.7964176 -141.8671875 282.23828125 C-134.63083305 285.98923562 -127.03449928 287.04458397 -119.05859375 288.171875 C-115.3125 288.75 -115.3125 288.75 -113.3125 289.75 C-112.46193055 293.30692677 -112.14340193 295.24270578 -113.3125 298.75 C-115.88143838 300.03446919 -118.07826337 300.07977144 -120.9375 300.3125 C-122.44183594 300.43818359 -122.44183594 300.43818359 -123.9765625 300.56640625 C-124.74742188 300.62699219 -125.51828125 300.68757813 -126.3125 300.75 C-127.07573532 319.69076505 -127.07573532 319.69076505 -118.3125 336 C-111.82972527 342.81549993 -103.59090241 347.04781647 -94.20703125 347.953125 C-83.2417682 348.19999771 -74.36358962 344.31078394 -66.3359375 336.93359375 C-59.28118091 329.50358415 -57.06459408 321.19515315 -55.8046875 311.21875 C-55.3125 308.75 -55.3125 308.75 -53.3125 306.75 C-48.05886454 306.19110261 -48.05886454 306.19110261 -45.6484375 307.99609375 C-43.00628211 311.4648884 -43.82389165 315.61055394 -44.3125 319.75 C-45.97562851 327.43609674 -48.65920457 334.04428967 -52.9453125 340.62890625 C-54.22702058 342.61738479 -55.29632848 344.61603981 -56.3125 346.75 C-54.7095947 347.56498562 -53.10512722 348.37689927 -51.5 349.1875 C-50.60667969 349.63996094 -49.71335937 350.09242188 -48.79296875 350.55859375 C-41.09693164 354.25511551 -31.6138201 353.84291489 -23.5625 351.3125 C-13.63092638 347.16702016 -6.53267412 339.0741756 -2.27104092 329.38123703 C-0.88353526 324.12495447 -1.0269817 319.04535885 -1.03834534 313.63067627 C-1.03310866 312.39937257 -1.02787198 311.16806886 -1.02247661 309.89945292 C-1.01007957 306.48897389 -1.00663281 303.07870117 -1.00707352 299.66821384 C-1.00542296 295.98709295 -0.99235202 292.3060094 -0.98088074 288.62490845 C-0.95805054 280.57939487 -0.95011234 272.5339077 -0.94505429 264.48836613 C-0.94179513 259.46262533 -0.93527134 254.43689217 -0.9280529 249.4111557 C-0.90848997 235.48997367 -0.89208383 221.56879874 -0.88917637 207.64760208 C-0.8889888 206.75710983 -0.88880123 205.86661758 -0.88860798 204.94914071 C-0.88824173 203.14398432 -0.88787803 201.33882792 -0.88751686 199.53367153 C-0.88733405 198.63761852 -0.88715124 197.74156551 -0.88696289 196.81835938 C-0.88678234 195.92120983 -0.88660179 195.02406028 -0.88641577 194.09972438 C-0.88287432 179.56357697 -0.8558524 165.02757772 -0.818465 150.49148169 C-0.78036676 135.55925166 -0.76101878 120.62709511 -0.76071686 105.6948154 C-0.76013265 97.31416205 -0.75166413 88.93368549 -0.72271919 80.5530777 C-0.69818504 73.41686752 -0.6909361 66.28089861 -0.70596672 59.14465764 C-0.71312728 55.50582169 -0.71231587 51.86746197 -0.68955612 48.22867966 C-0.66508292 44.2779958 -0.67962596 40.3279881 -0.69776917 36.3772583 C-0.67796921 34.66449042 -0.67796921 34.66449042 -0.65776926 32.91712117 C-0.74825085 24.27871183 -2.94059545 17.81202505 -8.48828125 11.12890625 C-15.86900783 4.85461401 -21.70180052 2.08996387 -31.5078125 2.40234375 C-39.16674233 3.3517097 -46.33606367 6.77321133 -51.3125 12.75 Z " fill="#FCF9FE" transform="translate(180.3125,11.25)"/>
<path d="M0 0 C7.1178108 5.10752598 11.25613201 11.00283994 13.56640625 19.45703125 C14.59979036 28.45670171 14.65284171 37.69269051 9.56640625 45.45703125 C9.14230469 46.15054688 8.71820313 46.8440625 8.28125 47.55859375 C3.49824635 54.67314514 -3.16682582 59.2391179 -11.43359375 61.45703125 C-20.72307406 62.2926958 -29.12863905 62.14108733 -37.43359375 57.45703125 C-38.39845703 56.93109375 -38.39845703 56.93109375 -39.3828125 56.39453125 C-47.20406431 51.5083696 -50.29675167 43.82194346 -53.43359375 35.45703125 C-173.71859375 34.96203125 -173.71859375 34.96203125 -296.43359375 34.45703125 C-296.43359375 30.16703125 -296.43359375 25.87703125 -296.43359375 21.45703125 C-216.24359375 21.12703125 -136.05359375 20.79703125 -53.43359375 20.45703125 C-50.95859375 14.51703125 -50.95859375 14.51703125 -48.43359375 8.45703125 C-36.99557694 -7.31387883 -16.12090121 -10.22111714 0 0 Z M-35.43359375 14.45703125 C-39.0476381 19.57692742 -40.69557069 24.13683756 -40.43359375 30.45703125 C-39.26309874 36.52334672 -36.0157827 41.38157849 -31.43359375 45.45703125 C-26.20254446 48.51670159 -21.36906782 49.35758594 -15.43359375 48.45703125 C-8.24486223 46.25318655 -3.75245758 41.4623415 -0.05859375 35.08203125 C1.4705994 28.65942004 1.18242654 23.11262514 -2.10546875 17.3125 C-6.10037788 11.73137695 -10.63219935 8.71654873 -17.43359375 7.45703125 C-24.0847345 6.6043209 -30.80580338 9.82924088 -35.43359375 14.45703125 Z " fill="#FCF9FE" transform="translate(498.43359375,171.54296875)"/>
<path d="M0 0 C7.83313901 5.30584321 12.99346948 13.4436154 14.8203125 22.71484375 C15.77978057 31.78981262 14.46119939 40.35258576 9.1328125 47.90234375 C8.05892578 49.19886552 6.95379304 50.47008544 5.8203125 51.71484375 C4.97339844 52.66037109 4.97339844 52.66037109 4.109375 53.625 C-2.09032398 59.78546038 -10.50250616 62.64494413 -19.1796875 63.21484375 C-28.26556961 62.63735124 -37.79500788 59.31767871 -44.1796875 52.71484375 C-48.108578 47.74000702 -52.1796875 42.25448867 -52.1796875 35.71484375 C-59.73443899 35.7530225 -67.28877247 35.81255986 -74.84312439 35.89874649 C-78.35165166 35.93811691 -81.8599319 35.97035582 -85.36865234 35.98583984 C-89.41023308 36.00399719 -93.45089274 36.05399328 -97.4921875 36.10546875 C-99.36608154 36.10731171 -99.36608154 36.10731171 -101.27783203 36.10919189 C-108.82795582 36.23529349 -115.13112335 36.66965448 -120.75389099 42.28773499 C-124.69775693 46.92042256 -125.30051304 52.17381391 -126.1171875 58.02734375 C-127.97132121 69.15406539 -131.07380163 76.97031193 -140.03125 84.24609375 C-146.70899995 88.81124644 -153.55305843 90.8476042 -161.61254883 90.82836914 C-162.67327103 90.82829361 -163.73399323 90.82821808 -164.82685852 90.82814026 C-166.52711433 90.82039833 -166.52711433 90.82039833 -168.26171875 90.8125 C-169.43103439 90.81108505 -170.60035004 90.8096701 -171.80509949 90.80821228 C-175.53415501 90.80262168 -179.26315017 90.79007084 -182.9921875 90.77734375 C-185.52278559 90.77232754 -188.05338462 90.76776484 -190.58398438 90.76367188 C-196.78257529 90.75265531 -202.98112116 90.73539707 -209.1796875 90.71484375 C-209.1796875 86.09484375 -209.1796875 81.47484375 -209.1796875 76.71484375 C-207.58576172 76.71073486 -205.99183594 76.70662598 -204.34960938 76.70239258 C-198.41536469 76.68056134 -192.48177925 76.62622841 -186.54785156 76.56225586 C-183.98346288 76.53911097 -181.41897962 76.52468844 -178.85449219 76.51928711 C-175.16021009 76.50997259 -171.4674086 76.46892228 -167.7734375 76.421875 C-166.6335437 76.42580765 -165.4936499 76.4297403 -164.31921387 76.43379211 C-157.32446109 76.30663198 -152.57412081 75.31667955 -147.1796875 70.71484375 C-142.35724578 65.6385893 -141.05071164 60.81608583 -140.3046875 53.96484375 C-138.82034136 43.10985439 -134.97312909 35.15242174 -126.30078125 28.2109375 C-117.05597682 21.95435268 -107.40485685 21.28333917 -96.515625 21.421875 C-95.24240387 21.42611984 -93.96918274 21.43036469 -92.65737915 21.43473816 C-89.30679655 21.4485946 -85.95685229 21.47544634 -82.60644531 21.5088501 C-79.17388359 21.53978972 -75.74125535 21.553294 -72.30859375 21.56835938 C-65.59878523 21.60129288 -58.88927313 21.65139012 -52.1796875 21.71484375 C-52.03797119 20.77697021 -51.89625488 19.83909668 -51.75024414 18.87280273 C-50.39216774 11.35602126 -45.30311293 4.88714329 -39.42578125 0.1875 C-27.02471322 -7.94328722 -12.49813004 -7.36896915 0 0 Z M-35.1171875 14.8046875 C-39.31086248 20.70204294 -40.65304087 25.40137013 -39.6171875 32.65234375 C-37.97111349 38.22950239 -34.96201544 42.88395882 -30.06640625 46.10546875 C-24.4196305 48.87521713 -19.31056324 49.98588244 -13.1484375 48.08984375 C-7.53016834 45.66966627 -3.68593561 41.66424326 -0.1796875 36.71484375 C1.56507158 31.4805665 1.94485383 25.59890448 -0.0859375 20.390625 C-3.31582573 14.95571693 -7.29383858 11.00426561 -13.1171875 8.40234375 C-21.59407592 6.4993688 -29.09212517 8.30588035 -35.1171875 14.8046875 Z " fill="#FDFBFF" transform="translate(411.1796875,81.28515625)"/>
<path d="M0 0 C7.48897498 -0.09939933 14.97755991 -0.17172015 22.46704102 -0.21972656 C25.01105444 -0.23975435 27.55502235 -0.26698464 30.09887695 -0.30175781 C33.77045983 -0.3506643 37.44143033 -0.3730582 41.11328125 -0.390625 C42.23769119 -0.41127014 43.36210114 -0.43191528 44.52058411 -0.45318604 C55.41484649 -0.45623283 64.98903297 2.375527 73 10 C80.23362237 17.9241045 82.35151771 26.43275777 83.72851562 36.8203125 C84.69830758 43.15552146 86.81607199 47.35091151 92.0625 51.3125 C96.17286224 53.67377193 99.09002993 54.13567209 103.7565918 54.20532227 C105.52808846 54.2352401 105.52808846 54.2352401 107.33537292 54.26576233 C108.61044205 54.28247482 109.88551117 54.29918732 111.19921875 54.31640625 C112.50454056 54.33718735 113.80986237 54.35796844 115.15473938 54.37937927 C118.62182353 54.43452273 122.08896646 54.48396595 125.55615234 54.53222656 C129.09543069 54.5824981 132.63462389 54.63815463 136.17382812 54.69335938 C143.11581156 54.80084638 150.05787194 54.90231227 157 55 C157.14099121 54.06285156 157.28198242 53.12570312 157.42724609 52.16015625 C158.72302902 45.01070434 163.40937994 38.68678085 169.0703125 34.24609375 C177.59573993 28.74080762 185.96093617 27.14923188 196 28 C204.7524755 29.94760179 212.3545777 34.20462689 217.8203125 41.39453125 C223.55696458 50.4152088 225.49892833 59.39469919 223.41796875 69.953125 C220.78792051 79.3204201 215.44369884 85.31267543 208.0625 91.4375 C198.93696414 96.09338564 189.90000481 97.46186369 179.9375 94.875 C170.38363341 91.65038255 163.65416236 85.94844508 158.96875 77.0390625 C157.68186764 74.21507065 157 72.12541462 157 69 C155.94336655 69.00999275 155.94336655 69.00999275 154.86538696 69.02018738 C148.187416 69.08060158 141.50952266 69.12612709 134.83133888 69.15543652 C131.39899547 69.171012 127.96688016 69.192099 124.53466797 69.22631836 C120.57782842 69.26551595 116.62107732 69.2797763 112.6640625 69.29296875 C111.44699615 69.30845261 110.22992981 69.32393646 108.97598267 69.33988953 C96.86287958 69.34225477 87.2479457 66.73138832 78.24609375 58.37109375 C71.47127786 51.05293423 69.48291473 42.84045145 68.21411133 33.20361328 C67.2656909 26.67974426 65.31292369 21.79369592 59.9375 17.625 C55.98494222 15.43847868 53.1500896 14.86725088 48.70239258 14.79467773 C47.62149857 14.77473251 46.54060455 14.75478729 45.42695618 14.73423767 C43.67840584 14.70916893 43.67840584 14.70916893 41.89453125 14.68359375 C40.70018967 14.66281265 39.50584808 14.64203156 38.27531433 14.62062073 C34.45443557 14.55515724 30.63348724 14.4962549 26.8125 14.4375 C24.22460214 14.39431176 21.63671135 14.35069737 19.04882812 14.30664062 C12.69929032 14.19947905 6.34968244 14.09820236 0 14 C0 9.38 0 4.76 0 0 Z M176.69921875 46.10546875 C170.98361129 52.32867901 169.58101638 56.4911498 169.65234375 64.91796875 C170.31820097 70.82090523 173.30556064 74.39028261 177.5 78.375 C183.22732492 82.0977612 188.24556549 82.80434487 195 82 C201.69017278 80.13571905 205.52668124 75.85296275 209 70 C210.89340495 64.31978516 210.92131907 58.25898331 208.4375 52.75 C205.48109624 47.67894633 202.01768356 44.0728527 196.41796875 42.08203125 C188.81321926 40.32708906 182.60691332 40.69927627 176.69921875 46.10546875 Z " fill="#FBF7FE" transform="translate(202,228)"/>
<path d="M0 0 C7.82990531 5.72537316 13.82808774 12.7973795 15.58984375 22.5234375 C16.5749529 32.7880316 15.69594871 41.68624552 9.671875 50.25 C4.04785829 56.99882005 -2.64257329 61.87648821 -11.41015625 63.5234375 C-23.16543369 64.42655075 -32.30924449 62.74636756 -41.59375 55.28125 C-47.23784439 49.81922317 -50.5819462 43.10890553 -52.41015625 35.5234375 C-52.41015625 34.8634375 -52.41015625 34.2034375 -52.41015625 33.5234375 C-62.30467782 33.82929597 -71.44700306 34.84928008 -79.0378418 41.85205078 C-87.8597321 52.59651992 -91.44311556 68.91610012 -96.02392578 81.77490234 C-97.11247777 84.82198511 -98.21385358 87.86421037 -99.31640625 90.90625 C-99.63847046 91.82318634 -99.96053467 92.74012268 -100.2923584 93.68484497 C-105.46377702 107.90624618 -112.8175567 117.775752 -126.578125 124.39453125 C-131.97241653 126.54480746 -136.9672845 126.65280062 -142.72265625 126.5859375 C-143.46322266 126.58142578 -144.20378906 126.57691406 -144.96679688 126.57226562 C-146.78128524 126.56055925 -148.59573159 126.54262648 -150.41015625 126.5234375 C-150.41015625 122.2334375 -150.41015625 117.9434375 -150.41015625 113.5234375 C-149.37117187 113.43707031 -148.3321875 113.35070312 -147.26171875 113.26171875 C-133.82463885 112.13015112 -133.82463885 112.13015112 -122.9309082 104.85180664 C-119.29389747 100.24974786 -116.89420003 95.68071615 -114.84765625 90.2109375 C-114.52812988 89.39133545 -114.20860352 88.5717334 -113.87939453 87.72729492 C-111.87313486 82.53127662 -109.96021009 77.30188 -108.06001282 72.06639099 C-107.21094245 69.72850214 -106.35780605 67.39212623 -105.50415039 65.0559082 C-104.37223762 61.95809843 -103.25809328 58.85466423 -102.15405273 55.74682617 C-96.91707077 41.21301928 -90.36010398 29.97329218 -76.15625 22.74609375 C-67.74840161 19.00262783 -59.50649563 19.29052981 -50.41015625 19.5234375 C-50.29800781 18.78996094 -50.18585938 18.05648438 -50.0703125 17.30078125 C-48.42226977 10.36729972 -43.45658093 4.75454084 -37.6640625 0.80859375 C-25.93158123 -5.88115727 -11.85242422 -7.26129069 0 0 Z M-34.72265625 16.6484375 C-38.07145542 20.86144291 -39.2872383 25.17240959 -39.41015625 30.5234375 C-38.46510895 37.0325835 -35.34659879 42.22733539 -30.41015625 46.5234375 C-24.90914159 49.80288854 -19.66499502 50.37770904 -13.41015625 49.5234375 C-6.71903016 47.64044803 -2.88939655 43.38637877 0.58984375 37.5234375 C2.49932651 31.79498921 2.5017009 25.74781245 -0.03515625 20.2109375 C-2.88426012 15.20985091 -7.06825556 11.7100683 -12.41015625 9.5234375 C-21.95027393 8.3662441 -27.93924562 9.76742384 -34.72265625 16.6484375 Z " fill="#FDFDFF" transform="translate(352.41015625,7.4765625)"/>
<path d="M0 0 C13.92420052 -0.58765676 25.21621434 0.14623282 36 10 C49.36453189 22.29942688 53.74529368 42.96915479 59.68920898 59.58764648 C60.78447459 62.64404083 61.89319694 65.69528373 63.00390625 68.74609375 C63.33113174 69.67223984 63.65835724 70.59838593 63.99549866 71.55259705 C67.08826375 79.99561113 70.90136155 86.2333241 78.88671875 90.77734375 C84.99291191 93.17538448 91.50236589 93.53242831 98 94 C98.07476562 93.38253906 98.14953125 92.76507813 98.2265625 92.12890625 C99.71378499 82.54944377 104.24483841 75.61159165 111.75390625 69.5078125 C120.79278394 63.43997461 131.0070966 62.64157029 141.57421875 64.4375 C150.32552196 66.88114488 157.10888396 72.96877126 161.78125 80.61328125 C166.19832013 89.26337692 167.31685236 97.68906688 164.8125 107.0625 C161.71569688 116.32423526 156.31768105 123.63736331 147.578125 128.2890625 C138.26798456 132.30803617 129.76480075 132.83630773 120 130 C110.85762178 126.25861274 104.25810277 119.85685376 100 111 C100 110.01 100 109.02 100 108 C99.24976563 108.02320313 98.49953125 108.04640625 97.7265625 108.0703125 C84.16021106 108.30951769 73.62347365 105.7994269 62.875 97.1875 C59.09513582 93.52143061 56.49826346 89.77592323 54.203125 85.07421875 C53.86459503 84.38810516 53.52606506 83.70199158 53.17727661 82.99508667 C48.19538808 72.57791452 44.63557468 61.56510127 40.84912109 50.67431641 C34.46325912 29.9739102 34.46325912 29.9739102 19 16 C14.6626772 14.30072011 10.76591202 13.65913747 6.125 13.375 C4.10375 13.25125 2.0825 13.1275 0 13 C0 8.71 0 4.42 0 0 Z M114.9375 85.625 C111.37676783 91.82756571 110.82059202 98.3301819 112.578125 105.2890625 C115.05510028 111.12121338 119.52743447 114.08734542 125 117 C130.5365157 118.84550523 135.66899385 118.35443635 141.0078125 116.18359375 C145.88141366 113.2881013 149.89482063 108.24812322 152 103 C152.97218158 96.40963224 152.43802569 91.15821055 148.4921875 85.71875 C143.88313915 80.4098985 139.37601575 77.40054424 132.3125 76.5625 C125.45817331 76.77020687 118.98958022 80.10901797 114.9375 85.625 Z " fill="#FAF6FE" transform="translate(202,265)"/>
<path d="M0 0 C5.42006354 3.94186439 7.50210831 10.35110431 8.6953125 16.69921875 C9.18776135 20.12902097 9.62759529 23.55525642 10 27 C10.61746094 27.08636719 11.23492187 27.17273438 11.87109375 27.26171875 C18.19719321 28.31125428 23.87500266 30.00161846 29 34 C30.5876764 36.5216037 31.03227572 37.55889848 30.8125 40.5625 C29.90600171 43.28199487 29.3989516 44.42827309 27 46 C22.99984777 46.65118757 20.61646913 45.91940304 17.1875 44 C11.74381898 41.11805122 7.25412868 41.03347521 1.3828125 42.77734375 C-4.62763152 45.28318169 -7.61520351 48.26142245 -10.18359375 54.23046875 C-11.30601378 58.03810417 -11.60710495 61.69379434 -11.6640625 65.65234375 C-12 68 -12 68 -13.3046875 69.79296875 C-16.13726184 71.80970947 -18.65266031 71.35864354 -22 71 C-24.13606364 69.41921285 -24.88883019 68.41334279 -25.58203125 65.8359375 C-26.56867429 55.30059659 -24.4092461 47.53160611 -18 39 C-14.42769087 35.21472629 -11.24986875 31.94497637 -6 31 C-4.58012154 22.86796881 -5.36877835 16.94683247 -10 10 C-10.4516129 3.67741935 -10.4516129 3.67741935 -8 0 C-4.61786861 -1.12737713 -3.35228621 -1.06292002 0 0 Z " fill="#FCF9FE" transform="translate(134,166)"/>
<path d="M0 0 C5.78720741 2.2440192 8.63095646 7.01110097 11.125 12.5 C11.38410156 13.15613281 11.64320312 13.81226563 11.91015625 14.48828125 C13.58980928 16.96505776 15.2140655 17.37193977 18.0625 18.1875 C25.49271353 19.01521809 31.42156682 18.51187737 38.0625 15.09375 C41.1961969 13.67379359 43.70727811 13.6506645 47.0625 14.1875 C49.0625 15.75 49.0625 15.75 50.0625 18.1875 C50.25 21.625 50.25 21.625 49.0625 25.1875 C41.54283126 32.45391565 30.7527947 33.53229563 20.84765625 33.390625 C18.0625 33.1875 18.0625 33.1875 15.0625 32.1875 C15.05992188 32.77015625 15.05734375 33.3528125 15.0546875 33.953125 C14.65600727 42.40514587 11.83491243 50.65012884 5.5546875 56.5390625 C3.0625 58.1875 3.0625 58.1875 -0.0625 58.1875 C-2.9375 57.1875 -2.9375 57.1875 -4.875 55.5 C-6.40477184 52.17049659 -5.98464265 50.72160644 -4.9375 47.1875 C-4.12357521 45.57339914 -3.28818442 43.97003328 -2.4375 42.375 C0.97555796 35.73739599 1.85495834 30.40043541 0 23.125 C-1.47352111 18.68377983 -3.77911847 15.6063931 -6.6875 12 C-7.9375 10.1875 -7.9375 10.1875 -8.625 6.9375 C-7.9375 4.1875 -7.9375 4.1875 -5.8125 1.75 C-2.9375 0.1875 -2.9375 0.1875 0 0 Z " fill="#FBF7FE" transform="translate(83.9375,259.8125)"/>
<path d="M0 0 C6.30239147 1.76215225 11.83084922 5.05615251 15.75 10.375 C17.827839 12.228813 17.827839 12.228813 20.14453125 11.91015625 C24.47258314 11.06412349 26.9619994 10.24572713 30 7 C32.375 6.125 32.375 6.125 35 6 C37.2831838 7.1415919 39.19012683 8.19012683 41 10 C41.375 12.75 41.375 12.75 41 16 C36.76436544 21.39080762 31.36523182 24.88463482 24.5625 25.75 C23.386875 25.8325 22.21125 25.915 21 26 C20.96132812 26.8353125 20.96132812 26.8353125 20.921875 27.6875 C20.49016622 33.49594537 19.30123878 39.69876122 15 44 C8.83301344 44.45681382 8.83301344 44.45681382 6.0625 42.9375 C4.42149353 39.94507644 4.76104649 37.3453492 5 34 C5.33 33.01 5.66 32.02 6 31 C6.38438818 26.31046415 6.45895659 23.93556536 4.375 19.6875 C1.62994294 16.58125122 -0.06077694 15.31307435 -4 14 C-5.68745252 13.97562268 -7.37603459 13.9998527 -9.0625 14.0625 C-12.62433211 14.16457362 -13.85856623 14.07354556 -17.125 12.375 C-19 10 -19 10 -19.625 7 C-19 4 -19 4 -16.8828125 1.84375 C-11.67891047 -1.48449087 -5.9608748 -0.66158433 0 0 Z " fill="#FDFCFF" transform="translate(116,84)"/>
<path d="M0 0 C2.85209121 1.90139414 3.32701847 3.74725595 4 7 C4.49020914 11.93037267 4.14291871 16.08540727 2.4375 20.75 C1.15425523 24.27586776 0.53601128 26.38882783 2 30 C2.70125 30.969375 3.4025 31.93875 4.125 32.9375 C6 36 6 36 5.875 39.25 C5 42 5 42 3 44 C-2.05185527 44.75777829 -2.05185527 44.75777829 -5 44 C-6.73898331 42.31154405 -8.06217852 40.50043918 -9.4921875 38.546875 C-11.07076525 36.5832452 -11.07076525 36.5832452 -14.6875 36.75 C-15.780625 36.8325 -16.87375 36.915 -18 37 C-19.9375 35.9375 -19.9375 35.9375 -21 34 C-21.6875 30.75 -21.6875 30.75 -21 27 C-19.12531377 24.96377618 -17.15722922 23.3367008 -14.9453125 21.67578125 C-11.81742578 18.98127642 -11.09575687 16.97090198 -10.69140625 12.87109375 C-10.60537473 10.57952679 -10.52204717 8.28785674 -10.44140625 5.99609375 C-10 3 -10 3 -8.68359375 1.12109375 C-5.8332601 -0.77692425 -3.30276784 -0.35386798 0 0 Z " fill="#FCFAFF" transform="translate(70,130)"/>
</svg>
